# Rhino

o object_1
v 0.4149999916553497 0.5 2.5
v 0.4149999916553497 0.5 -0.5
v 0.4252512753009796 0.5247487425804138 2.5
v 0.4252512753009796 0.5247487425804138 -0.5
v 0.449999988079071 0.5350000262260437 2.5
v 0.449999988079071 0.5350000262260437 -0.5
v 0.4747487306594849 0.5247487425804138 2.5
v 0.4747487306594849 0.5247487425804138 -0.5
v 0.4850000143051148 0.5 2.5
v 0.4849999845027924 0.5 -0.5
v 0.4747487306594849 0.4752512574195862 2.5
v 0.4747487306594849 0.4752512574195862 -0.5
v 0.449999988079071 0.4650000035762787 2.5
v 0.449999988079071 0.4650000035762787 -0.5
v 0.4252512753009796 0.4752512574195862 2.5
v 0.4252512753009796 0.4752512574195862 -0.5
v 0.4149999916553497 0.5 2.5
v 0.4149999916553497 0.5 -0.5
v 0.4149999916553497 0.5 2.5
v 0.4252512753009796 0.5247487425804138 2.5
v 0.449999988079071 0.5350000262260437 2.5
v 0.4747487306594849 0.5247487425804138 2.5
v 0.4850000143051148 0.5 2.5
v 0.4747487306594849 0.4752512574195862 2.5
v 0.449999988079071 0.4650000035762787 2.5
v 0.4252512753009796 0.4752512574195862 2.5
v 0.4149999916553497 0.5 -0.5
v 0.4252512753009796 0.5247487425804138 -0.5
v 0.449999988079071 0.5350000262260437 -0.5
v 0.4747487306594849 0.5247487425804138 -0.5
v 0.4849999845027924 0.5 -0.5
v 0.4747487306594849 0.4752512574195862 -0.5
v 0.449999988079071 0.4650000035762787 -0.5
v 0.4252512753009796 0.4752512574195862 -0.5
vt 0 0
vt 0 1
vt 0.1003035232424736 0
vt 0.1003035232424736 1
vt 0.2006070464849472 0
vt 0.2006070464849472 1
vt 0.3009105622768402 0
vt 0.3009105622768402 1
vt 0.4012140929698944 0
vt 0.4012140929698944 1
vt 0.5015175938606262 0
vt 0.5015175938606262 1
vt 0.6018211245536804 0
vt 0.6018211245536804 1
vt 0.7021246552467346 0
vt 0.7021246552467346 1
vt 0.8024281859397888 0
vt 0.8024281859397888 1
vt 1 0.0116666667163372
vt 0.971066415309906 0.00341708748601377
vt 0.9012144804000855 0
vt 0.8313626050949097 0.00341708748601377
vt 0.8024290204048157 0.0116666667163372
vt 0.8313626050949097 0.01991624571382999
vt 0.9012144804000855 0.02333333343267441
vt 0.971066415309906 0.01991624571382999
vt 1 0.0116666667163372
vt 0.971066415309906 0.01991624571382999
vt 0.9012144804000855 0.02333333343267441
vt 0.8313626050949097 0.01991624571382999
vt 0.8024290204048157 0.0116666667163372
vt 0.8313626050949097 0.00341708748601377
vt 0.9012144804000855 0
vt 0.971066415309906 0.00341708748601377
vn -1 1.27666012832118e-15 3.103982348928724e-10
vn -1 1.27666012832118e-15 3.103982348928724e-10
vn -0.7071067690849304 0.7071067690849304 2.194846943082141e-10
vn -0.7071067690849304 0.7071067690849304 2.194846943082141e-10
vn 1.27666012832118e-15 1 -3.962730344698759e-25
vn 1.27666012832118e-15 1 -3.962730344698759e-25
vn 0.7071067690849304 0.7071067690849304 -2.194846943082141e-10
vn 0.7071067690849304 0.7071067690849304 -2.194846943082141e-10
vn 1 -1.27666012832118e-15 -3.103982348928724e-10
vn 1 -1.27666012832118e-15 -3.103982348928724e-10
vn 0.7071067690849304 -0.7071067690849304 -2.194846943082141e-10
vn 0.7071067690849304 -0.7071067690849304 -2.194846943082141e-10
vn -1.981141453959081e-15 -1 6.149428122068115e-25
vn -1.981141453959081e-15 -1 6.149428122068115e-25
vn -0.7071067690849304 -0.7071067690849304 2.194846943082141e-10
vn -0.7071067690849304 -0.7071067690849304 2.194846943082141e-10
vn -1 1.27666012832118e-15 3.103982348928724e-10
vn -1 1.27666012832118e-15 3.103982348928724e-10
vn 3.103982348928724e-10 0 1
vn 3.103982348928724e-10 0 1
vn 3.103982348928724e-10 0 1
vn 3.103982348928724e-10 0 1
vn 3.103982348928724e-10 0 1
vn 3.103982348928724e-10 0 1
vn 3.103982348928724e-10 0 1
vn 3.103982348928724e-10 0 1
vn -3.103982348928724e-10 0 -1
vn -3.103982348928724e-10 0 -1
vn -3.103982348928724e-10 0 -1
vn -3.103982348928724e-10 0 -1
vn -3.103982348928724e-10 0 -1
vn -3.103982348928724e-10 0 -1
vn -3.103982348928724e-10 0 -1
vn -3.103982348928724e-10 0 -1
f 1/1/1 3/3/3 4/4/4 2/2/2
f 3/3/3 5/5/5 6/6/6 4/4/4
f 5/5/5 7/7/7 8/8/8 6/6/6
f 7/7/7 9/9/9 10/10/10 8/8/8
f 9/9/9 11/11/11 12/12/12 10/10/10
f 11/11/11 13/13/13 14/14/14 12/12/12
f 13/13/13 15/15/15 16/16/16 14/14/14
f 15/15/15 17/17/17 18/18/18 16/16/16
f 23/23/23 22/22/22 26/26/26
f 22/22/22 21/21/21 20/20/20
f 25/25/25 24/24/24 23/23/23
f 22/22/22 20/20/20 26/26/26
f 26/26/26 20/20/20 19/19/19
f 25/25/25 23/23/23 26/26/26
f 31/31/31 34/34/34 30/30/30
f 30/30/30 28/28/28 29/29/29
f 33/33/33 31/31/31 32/32/32
f 30/30/30 34/34/34 28/28/28
f 34/34/34 27/27/27 28/28/28
f 33/33/33 34/34/34 31/31/31
o object_2
v -0.4850000143051148 -0.5 2.5
v -0.4850000143051148 -0.5 -0.5
v -0.4747487306594849 -0.4752512574195862 2.5
v -0.4747487306594849 -0.4752512574195862 -0.5
v -0.449999988079071 -0.4650000035762787 2.5
v -0.449999988079071 -0.4650000035762787 -0.5
v -0.4252512753009796 -0.4752512574195862 2.5
v -0.4252512753009796 -0.4752512574195862 -0.5
v -0.4149999916553497 -0.5 2.5
v -0.4149999916553497 -0.5 -0.5
v -0.4252512753009796 -0.5247487425804138 2.5
v -0.4252512753009796 -0.5247487425804138 -0.5
v -0.449999988079071 -0.5350000262260437 2.5
v -0.449999988079071 -0.5350000262260437 -0.5
v -0.4747487306594849 -0.5247487425804138 2.5
v -0.4747487306594849 -0.5247487425804138 -0.5
v -0.4850000143051148 -0.5 2.5
v -0.4850000143051148 -0.5 -0.5
v -0.4850000143051148 -0.5 2.5
v -0.4747487306594849 -0.4752512574195862 2.5
v -0.449999988079071 -0.4650000035762787 2.5
v -0.4252512753009796 -0.4752512574195862 2.5
v -0.4149999916553497 -0.5 2.5
v -0.4252512753009796 -0.5247487425804138 2.5
v -0.449999988079071 -0.5350000262260437 2.5
v -0.4747487306594849 -0.5247487425804138 2.5
v -0.4850000143051148 -0.5 -0.5
v -0.4747487306594849 -0.4752512574195862 -0.5
v -0.449999988079071 -0.4650000035762787 -0.5
v -0.4252512753009796 -0.4752512574195862 -0.5
v -0.4149999916553497 -0.5 -0.5
v -0.4252512753009796 -0.5247487425804138 -0.5
v -0.449999988079071 -0.5350000262260437 -0.5
v -0.4747487306594849 -0.5247487425804138 -0.5
vt 0 0
vt 0 1
vt 0.1003035232424736 0
vt 0.1003035232424736 1
vt 0.2006070464849472 0
vt 0.2006070464849472 1
vt 0.3009105622768402 0
vt 0.3009105622768402 1
vt 0.4012140929698944 0
vt 0.4012140929698944 1
vt 0.5015175938606262 0
vt 0.5015175938606262 1
vt 0.6018211245536804 0
vt 0.6018211245536804 1
vt 0.7021246552467346 0
vt 0.7021246552467346 1
vt 0.8024281859397888 0
vt 0.8024281859397888 1
vt 1 0.0116666667163372
vt 0.971066415309906 0.00341708748601377
vt 0.9012144804000855 0
vt 0.8313626050949097 0.00341708748601377
vt 0.8024290204048157 0.0116666667163372
vt 0.8313626050949097 0.01991624571382999
vt 0.9012144804000855 0.02333333343267441
vt 0.971066415309906 0.01991624571382999
vt 1 0.0116666667163372
vt 0.971066415309906 0.01991624571382999
vt 0.9012144804000855 0.02333333343267441
vt 0.8313626050949097 0.01991624571382999
vt 0.8024290204048157 0.0116666667163372
vt 0.8313626050949097 0.00341708748601377
vt 0.9012144804000855 0
vt 0.971066415309906 0.00341708748601377
vn -1 1.27666012832118e-15 3.103982348928724e-10
vn -1 1.27666012832118e-15 3.103982348928724e-10
vn -0.7071067690849304 0.7071067690849304 2.194846943082141e-10
vn -0.7071067690849304 0.7071067690849304 2.194846943082141e-10
vn 1.27666012832118e-15 1 -3.962730344698759e-25
vn 1.27666012832118e-15 1 -3.962730344698759e-25
vn 0.7071067690849304 0.7071067690849304 -2.194846943082141e-10
vn 0.7071067690849304 0.7071067690849304 -2.194846943082141e-10
vn 1 -1.27666012832118e-15 -3.103982348928724e-10
vn 1 -1.27666012832118e-15 -3.103982348928724e-10
vn 0.7071067690849304 -0.7071067690849304 -2.194846943082141e-10
vn 0.7071067690849304 -0.7071067690849304 -2.194846943082141e-10
vn -1.981141453959081e-15 -1 6.149428122068115e-25
vn -1.981141453959081e-15 -1 6.149428122068115e-25
vn -0.7071067690849304 -0.7071067690849304 2.194846943082141e-10
vn -0.7071067690849304 -0.7071067690849304 2.194846943082141e-10
vn -1 1.27666012832118e-15 3.103982348928724e-10
vn -1 1.27666012832118e-15 3.103982348928724e-10
vn 3.103982348928724e-10 0 1
vn 3.103982348928724e-10 0 1
vn 3.103982348928724e-10 0 1
vn 3.103982348928724e-10 0 1
vn 3.103982348928724e-10 0 1
vn 3.103982348928724e-10 0 1
vn 3.103982348928724e-10 0 1
vn 3.103982348928724e-10 0 1
vn -3.103982348928724e-10 0 -1
vn -3.103982348928724e-10 0 -1
vn -3.103982348928724e-10 0 -1
vn -3.103982348928724e-10 0 -1
vn -3.103982348928724e-10 0 -1
vn -3.103982348928724e-10 0 -1
vn -3.103982348928724e-10 0 -1
vn -3.103982348928724e-10 0 -1
f 35/35/35 37/37/37 38/38/38 36/36/36
f 37/37/37 39/39/39 40/40/40 38/38/38
f 39/39/39 41/41/41 42/42/42 40/40/40
f 41/41/41 43/43/43 44/44/44 42/42/42
f 43/43/43 45/45/45 46/46/46 44/44/44
f 45/45/45 47/47/47 48/48/48 46/46/46
f 47/47/47 49/49/49 50/50/50 48/48/48
f 49/49/49 51/51/51 52/52/52 50/50/50
f 57/57/57 56/56/56 60/60/60
f 56/56/56 55/55/55 54/54/54
f 59/59/59 58/58/58 57/57/57
f 56/56/56 54/54/54 60/60/60
f 60/60/60 54/54/54 53/53/53
f 59/59/59 57/57/57 60/60/60
f 65/65/65 68/68/68 64/64/64
f 64/64/64 62/62/62 63/63/63
f 67/67/67 65/65/65 66/66/66
f 64/64/64 68/68/68 62/62/62
f 68/68/68 61/61/61 62/62/62
f 67/67/67 68/68/68 65/65/65
