# Rhino

g object_1
v 0 0 1
v 0 0 0.5
v 0 0.5 1
v 0 1 0
v 0 1 0.5
v 0 0.5 0
v 1 0 1
v 1 0 0.5
v 1 0.5 1
v 1 1 0
v 1 1 0.5
v 1 0.5 0
v 0 0 1
v 1 0 1
v 0 0 0.5
v 1 0 0.5
v 0.5 0 0.5
v 0.5 0 1
v 0 0 0.5
v 1 0 0.5
v 0 0.5 0
v 1 0.5 0
v 0.5 0 0.5
v 0.5 0.5 0
v 0 0.5 0
v 1 0.5 0
v 0 1 0
v 1 1 0
v 0.5 0.5 0
v 0.5 1 0
v 0 1 0
v 1 1 0
v 0 1 0.5
v 1 1 0.5
v 0.5 1 0
v 0.5 1 0.5
v 0 1 0.5
v 1 1 0.5
v 0 0.5 1
v 1 0.5 1
v 0.5 1 0.5
v 0.5 0.5 1
v 0 0.5 1
v 1 0.5 1
v 0 0 1
v 1 0 1
v 0.5 0 1
v 0.5 0.5 1
vt 0.3352161943912506 0.8366666436195374
vt 0.1692675799131393 0.8366666436195374
vt 0.3352161943912506 0.6700000166893005
vt 0.003318981966003776 0.503333330154419
vt 0.1692675799131393 0.503333330154419
vt 0.003318981966003776 0.6700000166893005
vt 0.3352161943912506 0.3366666436195374
vt 0.1692675799131393 0.3366666436195374
vt 0.3352161943912506 0.1700000017881393
vt 0.003318981966003776 0.003333333414047957
vt 0.1692675799131393 0.003333333414047957
vt 0.003318981966003776 0.1700000017881393
vt 0.6733333468437195 0.1666666716337204
vt 0.3400000035762787 0.1666666716337204
vt 0.6733333468437195 0.3318684995174408
vt 0.3400000035762787 0.3318684995174408
vt 0.5066666603088379 0.3318684995174408
vt 0.5066666603088379 0.1666666716337204
vt 0.5757022500038147 0.6666666865348816
vt 0.5757022500038147 0.99853515625
vt 0.8099396824836731 0.6666666865348816
vt 0.8099396824836731 0.99853515625
vt 0.5757022500038147 0.8326008915901184
vt 0.8099396824836731 0.8326008915901184
vt 0.6733333468437195 0
vt 0.3400000035762787 0
vt 0.6733333468437195 0.1652018278837204
vt 0.3400000035762787 0.1652018278837204
vt 0.5066666603088379 0
vt 0.5066666603088379 0.1652018278837204
vt 0.6733333468437195 0.5
vt 0.3400000035762787 0.5
vt 0.6733333468437195 0.6652018427848816
vt 0.3400000035762787 0.6652018427848816
vt 0.5066666603088379 0.5
vt 0.5066666603088379 0.6652018427848816
vt 0.3400000035762787 0.6666666865348816
vt 0.3400000035762787 0.99853515625
vt 0.5742374062538147 0.6666666865348816
vt 0.5742374062538147 0.99853515625
vt 0.3400000035762787 0.8326008915901184
vt 0.5742374062538147 0.8326008915901184
vt 0.6733333468437195 0.3333333432674408
vt 0.3400000035762787 0.3333333432674408
vt 0.6733333468437195 0.49853515625
vt 0.3400000035762787 0.49853515625
vt 0.5066666603088379 0.49853515625
vt 0.5066666603088379 0.3333333432674408
vn -1 0 0
vn -1 0 0
vn -1 0 0
vn -1 0 0
vn -1 0 0
vn -1 0 0
vn 1 0 0
vn 1 0 0
vn 1 0 0
vn 1 0 0
vn 1 0 0
vn 1 0 0
vn 0 -1 0
vn 0 -1 0
vn 0 -1 0
vn 0 -1 0
vn 0 -1 0
vn 0 -1 0
vn 0 -0.7071067690849304 -0.7071067690849304
vn 0 -0.7071067690849304 -0.7071067690849304
vn 0 -0.7071067690849304 -0.7071067690849304
vn 0 -0.7071067690849304 -0.7071067690849304
vn 0 -0.7071067690849304 -0.7071067690849304
vn 0 -0.7071067690849304 -0.7071067690849304
vn 0 0 -1
vn 0 0 -1
vn 0 0 -1
vn 0 0 -1
vn 0 0 -1
vn 0 0 -1
vn 0 1 0
vn 0 1 0
vn 0 1 0
vn 0 1 0
vn 0 1 0
vn 0 1 0
vn 0 0.7071067690849304 0.7071067690849304
vn 0 0.7071067690849304 0.7071067690849304
vn 0 0.7071067690849304 0.7071067690849304
vn 0 0.7071067690849304 0.7071067690849304
vn 0 0.7071067690849304 0.7071067690849304
vn 0 0.7071067690849304 0.7071067690849304
vn 0 0 1
vn 0 0 1
vn 0 0 1
vn 0 0 1
vn 0 0 1
vn 0 0 1
f 6/6/6 5/5/5 4/4/4
f 3/3/3 5/5/5 2/2/2
f 6/6/6 2/2/2 5/5/5
f 1/1/1 3/3/3 2/2/2
f 12/12/12 10/10/10 11/11/11
f 9/9/9 8/8/8 11/11/11
f 12/12/12 11/11/11 8/8/8
f 7/7/7 8/8/8 9/9/9
f 18/18/18 13/13/13 15/15/15 17/17/17
f 14/14/14 18/18/18 17/17/17 16/16/16
f 23/23/23 19/19/19 21/21/21 24/24/24
f 20/20/20 23/23/23 24/24/24 22/22/22
f 29/29/29 25/25/25 27/27/27 30/30/30
f 26/26/26 29/29/29 30/30/30 28/28/28
f 35/35/35 31/31/31 33/33/33 36/36/36
f 32/32/32 35/35/35 36/36/36 34/34/34
f 41/41/41 37/37/37 39/39/39 42/42/42
f 38/38/38 41/41/41 42/42/42 40/40/40
f 48/48/48 43/43/43 45/45/45 47/47/47
f 44/44/44 48/48/48 47/47/47 46/46/46
