# Rhino

g object_1
v 0.5 1.478786826133728 1.521213173866272
v 1.5 0.4787867963314056 0.521213173866272
v 0.4909835457801819 1.475767970085144 1.515215516090393
v 1.490983605384827 0.4757679998874664 0.5152155756950378
v 0.4826794862747192 1.47633969783783 1.50633978843689
v 1.482679486274719 0.4763397574424744 0.5063397288322449
v 0.4772249162197113 1.480803966522217 1.496420979499817
v 1.477224946022034 0.4808039963245392 0.4964209198951721
v 0.4755051136016846 1.487752556800842 1.487752556800842
v 1.475505113601685 0.4877525568008423 0.4877525568008423
v 0.4772249162197113 1.496420979499817 1.480803966522217
v 1.477224946022034 0.4964209198951721 0.4808039963245392
v 0.4826794862747192 1.50633978843689 1.47633969783783
v 1.482679486274719 0.5063397288322449 0.4763397574424744
v 0.4909835457801819 1.515215516090393 1.475767970085144
v 1.490983605384827 0.5152155756950378 0.4757679998874664
v 0.5 1.521213173866272 1.478786826133728
v 1.5 0.521213173866272 0.4787867963314056
v 0.5090164542198181 1.524232029914856 1.484784483909607
v 1.509016394615173 0.524232029914856 0.4847844243049622
v 0.5173205137252808 1.52366030216217 1.49366021156311
v 1.517320513725281 0.5236602425575256 0.4936602413654327
v 0.5227750539779663 1.519196033477783 1.503579020500183
v 1.522775053977966 0.5191959738731384 0.5035790801048279
v 0.5244948863983154 1.512247443199158 1.512247443199158
v 1.524494886398315 0.5122474431991577 0.5122474431991577
v 0.5227750539779663 1.503579020500183 1.519196033477783
v 1.522775053977966 0.5035790801048279 0.5191959738731384
v 0.5173205137252808 1.49366021156311 1.52366030216217
v 1.517320513725281 0.4936602413654327 0.5236602425575256
v 0.5090164542198181 1.484784483909607 1.524232029914856
v 1.509016394615173 0.4847844243049622 0.524232029914856
v 0.5 1.478786826133728 1.521213173866272
v 1.5 0.4787867963314056 0.521213173866272
v 1 0.978786826133728 1.021213173866272
v 1 0.9642733335494995 1.001953482627869
v 1 0.9575735926628113 0.978786826133728
v 1 0.958859384059906 0.970452606678009
v 1 0.9632576704025269 0.9632576704025269
v 1 0.9717798233032227 0.9583905935287476
v 1 0.9816288352012634 0.9576953053474426
v 1 1 0.9632576704025269
v 1 1.021213173866272 0.978786826133728
v 0.9823030233383179 1.018590450286865 0.9814095497131348
v 0.9744923114776611 1.015279531478882 0.9847204685211182
v 0.9681801795959473 1.010606646537781 0.989393413066864
v 0.9645491242408752 1.005574703216553 0.9944252371788025
v 0.9632576704025269 1 1
v 0.9647106528282166 0.9940582513809204 1.00594174861908
v 0.968663215637207 0.9889243841171265 1.011075615882874
v 0.9816288352012634 0.9816288352012634 1.018371224403381
vt 0 0
vt 0 1
vt 0.0625 0
vt 0.0625 1
vt 0.125 0
vt 0.125 1
vt 0.1875 0
vt 0.1875 1
vt 0.25 0
vt 0.25 1
vt 0.3125 0
vt 0.3125 1
vt 0.375 0
vt 0.375 1
vt 0.4375 0
vt 0.4375 1
vt 0.5 0
vt 0.5 1
vt 0.5625 0
vt 0.5625 1
vt 0.625 0
vt 0.625 1
vt 0.6875 0
vt 0.6875 1
vt 0.75 0
vt 0.75 1
vt 0.8125 0
vt 0.8125 1
vt 0.875 0
vt 0.875 1
vt 0.9375 0
vt 0.9375 1
vt 1 0
vt 1 1
vt 0 0.5
vt 0.07838438451290131 0.5112402439117432
vt 0.164729654788971 0.521213173866272
vt 0.2034437954425812 0.5235626697540283
vt 0.25 0.5244948863983154
vt 0.3035080134868622 0.523257851600647
vt 0.3468485474586487 0.5202252864837647
vt 0.414729654788971 0.5122474431991577
vt 0.5 0.5
vt 0.4179073572158814 0.4941112697124481
vt 0.3777002990245819 0.4915132820606232
vt 0.3352703452110291 0.489393413066864
vt 0.2947947680950165 0.4881891906261444
vt 0.25 0.4877525568008423
vt 0.2024763226509094 0.4883167445659638
vt 0.1611378937959671 0.4896551966667175
vt 0.08527034521102905 0.4938762784004211
vn -1.880550362242002e-15 -0.7071067690849304 0.7071067690849304
vn 4.007730037186618e-16 -0.7071067690849304 0.7071067690849304
vn -0.3005480766296387 -0.8077336549758911 0.5071855783462524
vn -0.3005480766296387 -0.8077336549758911 0.5071855783462524
vn -0.5773502588272095 -0.7886751294136047 0.2113248705863953
vn -0.5773502588272095 -0.7886751294136047 0.2113248705863953
vn -0.7591689825057983 -0.6398667693138123 -0.1193022206425667
vn -0.7591689825057983 -0.6398667693138123 -0.1193022206425667
vn -0.8164966106414795 -0.4082483053207398 -0.4082483053207398
vn -0.8164966106414795 -0.4082483053207398 -0.4082483053207398
vn -0.7591689825057983 -0.1193022206425667 -0.6398667693138123
vn -0.7591689825057983 -0.1193022206425667 -0.6398667693138123
vn -0.5773502588272095 0.2113248705863953 -0.7886751294136047
vn -0.5773502588272095 0.2113248705863953 -0.7886751294136047
vn -0.3005480766296387 0.5071855783462524 -0.8077336549758911
vn -0.3005480766296387 0.5071855783462524 -0.8077336549758911
vn -2.620438935624554e-15 0.7071067690849304 -0.7071067690849304
vn -1.448948535616836e-15 0.7071067690849304 -0.7071067690849304
vn 0.3005480766296387 0.8077336549758911 -0.5071855783462524
vn 0.3005480766296387 0.8077336549758911 -0.5071855783462524
vn 0.5773502588272095 0.7886751294136047 -0.2113248705863953
vn 0.5773502588272095 0.7886751294136047 -0.2113248705863953
vn 0.7591689825057983 0.6398667693138123 0.1193022206425667
vn 0.7591689825057983 0.6398667693138123 0.1193022206425667
vn 0.8164966106414795 0.4082483053207398 0.4082483053207398
vn 0.8164966106414795 0.4082483053207398 0.4082483053207398
vn 0.7591689825057983 0.1193022206425667 0.6398667693138123
vn 0.7591689825057983 0.1193022206425667 0.6398667693138123
vn 0.5773502588272095 -0.2113248705863953 0.7886751294136047
vn 0.5773502588272095 -0.2113248705863953 0.7886751294136047
vn 0.3005480766296387 -0.5071855783462524 0.8077336549758911
vn 0.3005480766296387 -0.5071855783462524 0.8077336549758911
vn 9.464409033506545e-15 -0.7071067690849304 0.7071067690849304
vn -2.49712406751501e-15 -0.7071067690849304 0.7071067690849304
vn -6.494804694057166e-15 -0.7071067690849304 0.7071067690849304
vn -0.3762295246124268 -0.8156803250312805 0.4394507706165314
vn -0.7071067690849304 -0.7071067690849304 \
 -2.137179322403426e-15
vn -0.785422146320343 -0.5859312415122986 -0.1994909346103668
vn -0.8164966106414795 -0.4082483053207398 -0.4082483053207398
vn -0.7750043869018555 -0.1649574339389801 -0.610046923160553
vn -0.6741762757301331 0.06180381774902344 -0.7359800934791565
vn -0.4082483053207398 0.4082483053207398 -0.8164966106414795
vn 1.970645868709653e-15 0.7071067690849304 -0.7071067690849304
vn -0.3935446739196777 0.4227774441242218 -0.8163221478462219
vn -0.5669264197349548 0.2254039943218231 -0.7923303842544556
vn -0.7071067690849304 8.548717289613705e-15 -0.7071067690849304
vn -0.7878115177154541 -0.2081242352724075 -0.5796872973442078
vn -0.8164966106414795 -0.4082483053207398 -0.4082483053207398
vn -0.784066915512085 -0.589338481426239 -0.1947284191846848
vn -0.6973468065261841 -0.7164784669876099 0.01913164369761944
vn -0.4082483053207398 -0.8164966106414795 0.4082483053207398
f 22/22/22 20/20/20 19/19/19 21/21/21
f 24/24/24 22/22/22 21/21/21 23/23/23
f 26/26/26 24/24/24 23/23/23 25/25/25
f 28/28/28 26/26/26 25/25/25 27/27/27
f 30/30/30 28/28/28 27/27/27 29/29/29
f 32/32/32 30/30/30 29/29/29 31/31/31
f 3/3/3 35/35/35 1/1/1
f 3/3/3 5/5/5 51/51/51
f 7/7/7 50/50/50 5/5/5
f 49/49/49 7/7/7 9/9/9
f 9/9/9 48/48/48 49/49/49
f 9/9/9 47/47/47 48/48/48
f 47/47/47 9/9/9 11/11/11
f 50/50/50 7/7/7 49/49/49
f 51/51/51 35/35/35 3/3/3
f 35/35/35 36/36/36 4/4/4
f 35/35/35 4/4/4 2/2/2
f 51/51/51 5/5/5 50/50/50
f 6/6/6 4/4/4 36/36/36
f 8/8/8 37/37/37 38/38/38
f 8/8/8 38/38/38 10/10/10
f 39/39/39 10/10/10 38/38/38
f 36/36/36 37/37/37 6/6/6
f 6/6/6 37/37/37 8/8/8
f 40/40/40 10/10/10 39/39/39
f 46/46/46 11/11/11 13/13/13
f 13/13/13 45/45/45 46/46/46
f 13/13/13 44/44/44 45/45/45
f 44/44/44 13/13/13 15/15/15
f 19/19/19 43/43/43 17/17/17
f 17/17/17 43/43/43 15/15/15
f 33/33/33 34/34/34 32/32/32 31/31/31
f 12/12/12 40/40/40 41/41/41
f 14/14/14 12/12/12 41/41/41
f 12/12/12 10/10/10 40/40/40
f 14/14/14 42/42/42 16/16/16
f 42/42/42 14/14/14 41/41/41
f 18/18/18 16/16/16 43/43/43
f 43/43/43 44/44/44 15/15/15
f 20/20/20 18/18/18 43/43/43
f 19/19/19 20/20/20 43/43/43
f 43/43/43 16/16/16 42/42/42
f 11/11/11 46/46/46 47/47/47
