# Rhino

g object_1
v -0.5 -0.5 -1.5
v -0.5 -0.5 1.5
v 0.5 -0.5 -1.5
v 0.5 -0.5 1.5
v 0 -0.5 -1.5
v -0.5 -0.5 0
v 0 -0.5 1.5
v 0.5 -0.5 0
v -0.5 0.5 -1.5
v -0.5 0.5 1.5
v 0.5 0.5 -1.5
v 0.5 0.5 1.5
v 0 0.5 -1.5
v -0.5 0.5 0
v 0 0.5 1.5
v 0.5 0.5 0
v -0.5 0.5 -1.5
v -0.5 -0.5 -1.5
v 0.5 0.5 -1.5
v 0.5 -0.5 -1.5
v 0 -0.5 -1.5
v 0 0.5 -1.5
v 0.5 0 -1.5
v -0.5 0 -1.5
v 0.5 0.5 -1.5
v 0.5 -0.5 -1.5
v 0.5 0.5 1.5
v 0.5 -0.5 1.5
v 0.5 -0.5 0
v 0.5 0.5 0
v 0.5 0 -1.5
v 0.5 0 1.5
v 0.5 0.5 1.5
v 0.5 -0.5 1.5
v -0.5 0.5 1.5
v -0.5 -0.5 1.5
v 0 -0.5 1.5
v 0 0.5 1.5
v 0.5 0 1.5
v -0.5 0 1.5
v -0.5 0.5 1.5
v -0.5 -0.5 1.5
v -0.5 0.5 -1.5
v -0.5 -0.5 -1.5
v -0.5 -0.5 0
v -0.5 0.5 0
v -0.5 0 -1.5
v -0.5 0 1.5
vt 0.25 0.25
vt 0.25 0.99853515625
vt 0.49853515625 0.25
vt 0.49853515625 0.99853515625
vt 0.374267578125 0.25
vt 0.25 0.624267578125
vt 0.374267578125 0.99853515625
vt 0.49853515625 0.624267578125
vt 0 0.25
vt 0 0.99853515625
vt 0.24853515625 0.25
vt 0.24853515625 0.99853515625
vt 0.124267578125 0.25
vt 0 0.624267578125
vt 0.124267578125 0.99853515625
vt 0.24853515625 0.624267578125
vt 0.25 0
vt 0.25 0.24853515625
vt 0.49853515625 0
vt 0.49853515625 0.24853515625
vt 0.374267578125 0.24853515625
vt 0.374267578125 0
vt 0.49853515625 0.124267578125
vt 0.25 0.124267578125
vt 0.99853515625 0
vt 0.75 0
vt 0.99853515625 0.75
vt 0.75 0.75
vt 0.75 0.375
vt 0.99853515625 0.375
vt 0.874267578125 0
vt 0.874267578125 0.75
vt 0 0
vt 0 0.24853515625
vt 0.24853515625 0
vt 0.24853515625 0.24853515625
vt 0.124267578125 0.24853515625
vt 0.124267578125 0
vt 0 0.124267578125
vt 0.24853515625 0.124267578125
vt 0.74853515625 0
vt 0.5 0
vt 0.74853515625 0.75
vt 0.5 0.75
vt 0.5 0.375
vt 0.74853515625 0.375
vt 0.624267578125 0.75
vt 0.624267578125 0
vn 0 -1 0
vn 0 -1 0
vn 0 -1 0
vn 0 -1 0
vn 0 -1 0
vn 0 -1 0
vn 0 -1 0
vn 0 -1 0
vn 0 1 0
vn 0 1 0
vn 0 1 0
vn 0 1 0
vn 0 1 0
vn 0 1 0
vn 0 1 0
vn 0 1 0
vn 0 0 -1
vn 0 0 -1
vn 0 0 -1
vn 0 0 -1
vn 0 0 -1
vn 0 0 -1
vn 0 0 -1
vn 0 0 -1
vn 1 0 0
vn 1 0 0
vn 1 0 0
vn 1 0 0
vn 1 0 0
vn 1 0 0
vn 1 0 0
vn 1 0 0
vn 0 0 1
vn 0 0 1
vn 0 0 1
vn 0 0 1
vn 0 0 1
vn 0 0 1
vn 0 0 1
vn 0 0 1
vn -1 0 0
vn -1 0 0
vn -1 0 0
vn -1 0 0
vn -1 0 0
vn -1 0 0
vn -1 0 0
vn -1 0 0
f 6/6/6 1/1/1 5/5/5
f 6/6/6 7/7/7 2/2/2
f 8/8/8 6/6/6 5/5/5
f 6/6/6 8/8/8 7/7/7
f 8/8/8 4/4/4 7/7/7
f 3/3/3 8/8/8 5/5/5
f 14/14/14 13/13/13 9/9/9
f 14/14/14 10/10/10 15/15/15
f 16/16/16 13/13/13 14/14/14
f 14/14/14 15/15/15 16/16/16
f 16/16/16 15/15/15 12/12/12
f 11/11/11 13/13/13 16/16/16
f 24/24/24 17/17/17 22/22/22
f 24/24/24 21/21/21 18/18/18
f 23/23/23 24/24/24 22/22/22
f 24/24/24 23/23/23 21/21/21
f 23/23/23 20/20/20 21/21/21
f 19/19/19 23/23/23 22/22/22
f 31/31/31 25/25/25 30/30/30
f 31/31/31 29/29/29 26/26/26
f 32/32/32 31/31/31 30/30/30
f 31/31/31 32/32/32 29/29/29
f 32/32/32 28/28/28 29/29/29
f 27/27/27 32/32/32 30/30/30
f 39/39/39 33/33/33 38/38/38
f 39/39/39 37/37/37 34/34/34
f 40/40/40 39/39/39 38/38/38
f 39/39/39 40/40/40 37/37/37
f 40/40/40 36/36/36 37/37/37
f 35/35/35 40/40/40 38/38/38
f 48/48/48 41/41/41 46/46/46
f 48/48/48 45/45/45 42/42/42
f 47/47/47 48/48/48 46/46/46
f 48/48/48 47/47/47 45/45/45
f 47/47/47 44/44/44 45/45/45
f 43/43/43 47/47/47 46/46/46
