# Rhino

o object_1
v 0.1500000059604645 0.8999999761581421 0
v 0.1500000059604645 0.8999999761581421 3
v 0.1353553384542465 0.9353553652763367 0
v 0.1353553384542465 0.9353553652763367 3
v 0.1000000014901161 0.949999988079071 0
v 0.1000000014901161 0.949999988079071 3
v 0.06464466452598572 0.9353553652763367 0
v 0.06464466452598572 0.9353553652763367 3
v 0.05000000074505806 0.8999999761581421 0
v 0.05000000074505806 0.8999999761581421 3
v 0.06464466452598572 0.8646446466445923 0
v 0.06464466452598572 0.8646446466445923 3
v 0.1000000014901161 0.8500000238418579 0
v 0.1000000014901161 0.8500000238418579 3
v 0.1353553384542465 0.8646446466445923 0
v 0.1353553384542465 0.8646446466445923 3
v 0.1500000059604645 0.8999999761581421 0
v 0.1500000059604645 0.8999999761581421 3
v 0.1500000059604645 0.8999999761581421 0
v 0.1353553384542465 0.9353553652763367 0
v 0.1000000014901161 0.949999988079071 0
v 0.06464466452598572 0.9353553652763367 0
v 0.05000000074505806 0.8999999761581421 0
v 0.06464466452598572 0.8646446466445923 0
v 0.1000000014901161 0.8500000238418579 0
v 0.1353553384542465 0.8646446466445923 0
v 0.1500000059604645 0.8999999761581421 3
v 0.1353553384542465 0.9353553652763367 3
v 0.1000000014901161 0.949999988079071 3
v 0.06464466452598572 0.9353553652763367 3
v 0.05000000074505806 0.8999999761581421 3
v 0.06464466452598572 0.8646446466445923 3
v 0.1000000014901161 0.8500000238418579 3
v 0.1353553384542465 0.8646446466445923 3
vt 0 0
vt 0 1
vt 0.1003035232424736 0
vt 0.1003035232424736 1
vt 0.2006070464849472 0
vt 0.2006070464849472 1
vt 0.3009105622768402 0
vt 0.3009105622768402 1
vt 0.4012140929698944 0
vt 0.4012140929698944 1
vt 0.5015175938606262 0
vt 0.5015175938606262 1
vt 0.6018211245536804 0
vt 0.6018211245536804 1
vt 0.7021246552467346 0
vt 0.7021246552467346 1
vt 0.8024281859397888 0
vt 0.8024281859397888 1
vt 1 0.01666666753590107
vt 0.971066415309906 0.004881553817540407
vt 0.9012144804000855 0
vt 0.8313626050949097 0.004881553817540407
vt 0.8024290204048157 0.01666666753590107
vt 0.8313626050949097 0.02845177985727787
vt 0.9012144804000855 0.03333333507180214
vt 0.971066415309906 0.02845177985727787
vt 1 0.01666666753590107
vt 0.971066415309906 0.02845177985727787
vt 0.9012144804000855 0.03333333507180214
vt 0.8313626050949097 0.02845177985727787
vt 0.8024290204048157 0.01666666753590107
vt 0.8313626050949097 0.004881553817540407
vt 0.9012144804000855 0
vt 0.971066415309906 0.004881553817540407
vn 1 0 0
vn 1 0 0
vn 0.7071067690849304 0.7071067690849304 0
vn 0.7071067690849304 0.7071067690849304 0
vn 0 1 0
vn 0 1 0
vn -0.7071067690849304 0.7071067690849304 0
vn -0.7071067690849304 0.7071067690849304 0
vn -1 0 0
vn -1 0 0
vn -0.7071067690849304 -0.7071067690849304 0
vn -0.7071067690849304 -0.7071067690849304 0
vn 0 -1 0
vn 0 -1 0
vn 0.7071067690849304 -0.7071067690849304 0
vn 0.7071067690849304 -0.7071067690849304 0
vn 1 0 0
vn 1 0 0
vn 0 0 -1
vn 0 0 -1
vn 0 0 -1
vn 0 0 -1
vn 0 0 -1
vn 0 0 -1
vn 0 0 -1
vn 0 0 -1
vn 0 0 1
vn 0 0 1
vn 0 0 1
vn 0 0 1
vn 0 0 1
vn 0 0 1
vn 0 0 1
vn 0 0 1
f 1/1/1 3/3/3 4/4/4 2/2/2
f 3/3/3 5/5/5 6/6/6 4/4/4
f 5/5/5 7/7/7 8/8/8 6/6/6
f 7/7/7 9/9/9 10/10/10 8/8/8
f 9/9/9 11/11/11 12/12/12 10/10/10
f 11/11/11 13/13/13 14/14/14 12/12/12
f 13/13/13 15/15/15 16/16/16 14/14/14
f 15/15/15 17/17/17 18/18/18 16/16/16
f 23/23/23 25/25/25 24/24/24
f 23/23/23 22/22/22 21/21/21
f 26/26/26 25/25/25 23/23/23
f 21/21/21 19/19/19 26/26/26
f 19/19/19 21/21/21 20/20/20
f 23/23/23 21/21/21 26/26/26
f 31/31/31 32/32/32 33/33/33
f 31/31/31 29/29/29 30/30/30
f 34/34/34 31/31/31 33/33/33
f 29/29/29 34/34/34 27/27/27
f 27/27/27 28/28/28 29/29/29
f 31/31/31 34/34/34 29/29/29
o object_2
v 0.949999988079071 0.1000000014901161 0
v 0.949999988079071 0.1000000014901161 3
v 0.9353553652763367 0.1353553384542465 0
v 0.9353553652763367 0.1353553384542465 3
v 0.8999999761581421 0.1500000059604645 0
v 0.8999999761581421 0.1500000059604645 3
v 0.8646446466445923 0.1353553384542465 0
v 0.8646446466445923 0.1353553384542465 3
v 0.8500000238418579 0.1000000014901161 0
v 0.8500000238418579 0.1000000014901161 3
v 0.8646446466445923 0.06464466452598572 0
v 0.8646446466445923 0.06464466452598572 3
v 0.8999999761581421 0.05000000074505806 0
v 0.8999999761581421 0.05000000074505806 3
v 0.9353553652763367 0.06464466452598572 0
v 0.9353553652763367 0.06464466452598572 3
v 0.949999988079071 0.1000000014901161 0
v 0.949999988079071 0.1000000014901161 3
v 0.949999988079071 0.1000000014901161 0
v 0.9353553652763367 0.1353553384542465 0
v 0.8999999761581421 0.1500000059604645 0
v 0.8646446466445923 0.1353553384542465 0
v 0.8500000238418579 0.1000000014901161 0
v 0.8646446466445923 0.06464466452598572 0
v 0.8999999761581421 0.05000000074505806 0
v 0.9353553652763367 0.06464466452598572 0
v 0.949999988079071 0.1000000014901161 3
v 0.9353553652763367 0.1353553384542465 3
v 0.8999999761581421 0.1500000059604645 3
v 0.8646446466445923 0.1353553384542465 3
v 0.8500000238418579 0.1000000014901161 3
v 0.8646446466445923 0.06464466452598572 3
v 0.8999999761581421 0.05000000074505806 3
v 0.9353553652763367 0.06464466452598572 3
vt 0 0
vt 0 1
vt 0.1003035232424736 0
vt 0.1003035232424736 1
vt 0.2006070464849472 0
vt 0.2006070464849472 1
vt 0.3009105622768402 0
vt 0.3009105622768402 1
vt 0.4012140929698944 0
vt 0.4012140929698944 1
vt 0.5015175938606262 0
vt 0.5015175938606262 1
vt 0.6018211245536804 0
vt 0.6018211245536804 1
vt 0.7021246552467346 0
vt 0.7021246552467346 1
vt 0.8024281859397888 0
vt 0.8024281859397888 1
vt 1 0.01666666753590107
vt 0.971066415309906 0.004881553817540407
vt 0.9012144804000855 0
vt 0.8313626050949097 0.004881553817540407
vt 0.8024290204048157 0.01666666753590107
vt 0.8313626050949097 0.02845177985727787
vt 0.9012144804000855 0.03333333507180214
vt 0.971066415309906 0.02845177985727787
vt 1 0.01666666753590107
vt 0.971066415309906 0.02845177985727787
vt 0.9012144804000855 0.03333333507180214
vt 0.8313626050949097 0.02845177985727787
vt 0.8024290204048157 0.01666666753590107
vt 0.8313626050949097 0.004881553817540407
vt 0.9012144804000855 0
vt 0.971066415309906 0.004881553817540407
vn 1 0 0
vn 1 0 0
vn 0.7071067690849304 0.7071067690849304 0
vn 0.7071067690849304 0.7071067690849304 0
vn 0 1 0
vn 0 1 0
vn -0.7071067690849304 0.7071067690849304 0
vn -0.7071067690849304 0.7071067690849304 0
vn -1 0 0
vn -1 0 0
vn -0.7071067690849304 -0.7071067690849304 0
vn -0.7071067690849304 -0.7071067690849304 0
vn 0 -1 0
vn 0 -1 0
vn 0.7071067690849304 -0.7071067690849304 0
vn 0.7071067690849304 -0.7071067690849304 0
vn 1 0 0
vn 1 0 0
vn 0 0 -1
vn 0 0 -1
vn 0 0 -1
vn 0 0 -1
vn 0 0 -1
vn 0 0 -1
vn 0 0 -1
vn 0 0 -1
vn 0 0 1
vn 0 0 1
vn 0 0 1
vn 0 0 1
vn 0 0 1
vn 0 0 1
vn 0 0 1
vn 0 0 1
f 35/35/35 37/37/37 38/38/38 36/36/36
f 37/37/37 39/39/39 40/40/40 38/38/38
f 39/39/39 41/41/41 42/42/42 40/40/40
f 41/41/41 43/43/43 44/44/44 42/42/42
f 43/43/43 45/45/45 46/46/46 44/44/44
f 45/45/45 47/47/47 48/48/48 46/46/46
f 47/47/47 49/49/49 50/50/50 48/48/48
f 49/49/49 51/51/51 52/52/52 50/50/50
f 57/57/57 59/59/59 58/58/58
f 57/57/57 56/56/56 55/55/55
f 60/60/60 59/59/59 57/57/57
f 55/55/55 53/53/53 60/60/60
f 53/53/53 55/55/55 54/54/54
f 57/57/57 55/55/55 60/60/60
f 65/65/65 66/66/66 67/67/67
f 65/65/65 63/63/63 64/64/64
f 68/68/68 65/65/65 67/67/67
f 63/63/63 68/68/68 61/61/61
f 61/61/61 62/62/62 63/63/63
f 65/65/65 68/68/68 63/63/63
